<?xml version="1.0" encoding="UTF-8" standalone="no"?>
<svg
   xmlns:ns="http://ns.adobe.com/SaveForWeb/1.0/"
   xmlns:dc="http://purl.org/dc/elements/1.1/"
   xmlns:cc="http://creativecommons.org/ns#"
   xmlns:rdf="http://www.w3.org/1999/02/22-rdf-syntax-ns#"
   xmlns:svg="http://www.w3.org/2000/svg"
   xmlns="http://www.w3.org/2000/svg"
   xmlns:sodipodi="http://sodipodi.sourceforge.net/DTD/sodipodi-0.dtd"
   xmlns:inkscape="http://www.inkscape.org/namespaces/inkscape"
   version="1.1"
   x="0px"
   y="0px"
   viewBox="0 0 98.965683 67.199997"
   enable-background="new 0 0 100 100"
   xml:space="preserve"
   id="svg11303"
   sodipodi:docname="noun_website_370174.svg"
   width="98.965683"
   height="67.199997"
   inkscape:version="0.92.1 r15371"
   inkscape:export-filename="C:\Users\Miad\OneDrive - University of Toronto\Projects\web_dev\test1\processed\website.png"
   inkscape:export-xdpi="285.71429"
   inkscape:export-ydpi="285.71429"><defs
     id="defs11307" /><sodipodi:namedview
     pagecolor="#ffffff"
     bordercolor="#666666"
     borderopacity="1"
     objecttolerance="10"
     gridtolerance="10"
     guidetolerance="10"
     inkscape:pageopacity="0"
     inkscape:pageshadow="2"
     inkscape:window-width="1366"
     inkscape:window-height="705"
     id="namedview11305"
     showgrid="false"
     inkscape:zoom="2.6700352"
     inkscape:cx="33.257816"
     inkscape:cy="29.135236"
     inkscape:window-x="-8"
     inkscape:window-y="-8"
     inkscape:window-maximized="1"
     inkscape:current-layer="g11295" /><metadata
     id="metadata11291"><ns:sfw><ns:slices /><ns:sliceSourceBounds
         width="1449.4"
         height="1439"
         y="-1445.4"
         x="0.4"
         bottomLeftOrigin="true" /></ns:sfw><rdf:RDF><cc:Work
         rdf:about=""><dc:format>image/svg+xml</dc:format><dc:type
           rdf:resource="http://purl.org/dc/dcmitype/StillImage" /></cc:Work></rdf:RDF></metadata><g
     id="g11297"
     style="fill:#000000;fill-opacity:1"
     transform="translate(-0.5,-16.4)"><g
       id="g11295"
       style="fill:#000000;fill-opacity:1"><path
         d="M 83.5,83.6 H 15.3 8.1 C 3.9,83.6 0.5,80.2 0.5,76 V 71.3 H 6.6 7 v -48 c 0,-3.8 3.1,-6.9 6.9,-6.9 H 85 c 3.8,0 6.9,3.1 6.9,6.9 V 37.7 L 82.5,34.5 V 25.8 H 16.3 v 45.6 h 23.9 v 0.5 c 0,1.4 1.2,2.6 2.6,2.6 H 56 c 1.4,0 2.6,-1.2 2.6,-2.6 v -0.5 h 24 v -2.5 c 1.8,0 3.5,-0.7 4.8,-2 l 0.8,-0.8 3,3 c 0.2,0.2 0.4,0.4 0.7,0.6 v 1.8 h 0.3 6.1 V 76 c 0,4.2 -3.4,7.6 -7.6,7.6 z M 99.3,60.1 92.2,53 C 92,52.8 92,52.4 92.2,52.2 L 97,47.5 c 0.3,-0.3 0.2,-0.8 -0.2,-0.9 l -20,-6.8 c -0.8,-0.3 -1.6,0.5 -1.3,1.4 l 6.8,20 c 0.1,0.4 0.6,0.5 0.9,0.2 l 4.7,-4.7 c 0.2,-0.2 0.6,-0.2 0.8,0 l 7.1,7.1 c 0.2,0.2 0.6,0.2 0.8,0 L 99.4,61 c 0.1,-0.3 0.1,-0.7 -0.1,-0.9 z M 49.4,29.7 c 10.9,0 19.8,8.9 19.8,19.8 0,10.9 -8.9,19.8 -19.8,19.8 -10.9,0 -19.8,-8.9 -19.8,-19.8 0,-10.9 8.9,-19.8 19.8,-19.8 z M 36.5,42.4 h 3.9 c 0.8,-2.6 2,-4.7 3.2,-6.4 -3,1.3 -5.5,3.5 -7.1,6.4 z m 3.2,11.3 c -0.2,-1.3 -0.3,-2.7 -0.3,-4.2 0,-1.5 0.1,-2.9 0.3,-4.2 h -4.4 c -0.4,1.3 -0.6,2.7 -0.6,4.2 0,1.5 0.2,2.9 0.6,4.2 z m 3.9,9.3 c -1.2,-1.7 -2.4,-3.8 -3.2,-6.4 h -3.9 c 1.6,2.9 4.1,5.1 7.1,6.4 z m 4.3,-6.4 h -4.4 c 1.2,3.2 3,5.5 4.4,7 z m 0,-11.3 h -5.2 c -0.2,1.3 -0.4,2.7 -0.4,4.2 0,1.5 0.1,2.9 0.4,4.2 h 5.2 z m 0,-9.9 c -1.4,1.4 -3.2,3.7 -4.4,7 h 4.4 z m 14.4,21.2 h -3.9 c -0.8,2.6 -2,4.7 -3.2,6.4 3.1,-1.3 5.6,-3.5 7.1,-6.4 z M 59.1,45.3 c 0.2,1.3 0.3,2.7 0.3,4.2 0,1.5 -0.1,2.9 -0.3,4.2 h 4.4 c 0.4,-1.3 0.6,-2.7 0.6,-4.2 0,-1.5 -0.2,-2.9 -0.6,-4.2 z M 55.3,36 c 1.2,1.7 2.4,3.8 3.2,6.4 h 3.9 C 60.8,39.5 58.3,37.3 55.3,36 Z m -4.4,6.4 h 4.4 c -1.2,-3.2 -3,-5.5 -4.4,-7 z m 0,11.3 h 5.2 c 0.2,-1.3 0.4,-2.7 0.4,-4.2 0,-1.5 -0.1,-2.9 -0.4,-4.2 h -5.2 z m 0,9.9 c 1.4,-1.4 3.2,-3.7 4.4,-7 h -4.4 z"
         id="path11293"
         style="fill:#00a4ff;fill-opacity:1"
         inkscape:connector-curvature="0" /><path
         style="opacity:1;vector-effect:none;fill:#179600;fill-opacity:1;stroke:none;stroke-width:2.78173232;stroke-linecap:butt;stroke-linejoin:miter;stroke-miterlimit:2;stroke-dasharray:none;stroke-dashoffset:0;stroke-opacity:1;paint-order:normal"
         d="M 46.515457,68.987014 C 39.572556,67.903116 33.129327,62.591402 30.86727,56.086858 27.578673,46.6305 31.774865,36.292466 40.679724,31.912207 c 12.18075,-5.991654 26.329468,1.620898 28.227323,15.187383 0.55323,3.954664 -0.203539,7.841492 -2.3178,11.904415 -1.436666,2.760803 -5.054629,6.331449 -7.908297,7.804871 -3.77399,1.948607 -8.367584,2.771054 -12.165493,2.178138 z m 1.447106,-8.858451 v -3.575212 h -2.268906 c -2.228811,0 -2.265779,0.01054 -2.091966,0.595869 0.304963,1.02701 1.738245,3.446584 2.980671,5.03178 0.656428,0.837526 1.235511,1.522775 1.286853,1.522775 0.05134,0 0.09335,-1.608845 0.09335,-3.575212 z m 4.346218,2.016751 c 1.021769,-1.327868 3.069036,-4.955461 3.069036,-5.438091 0,-0.08463 -1.012977,-0.153872 -2.251059,-0.153872 h -2.251059 v 3.575212 c 0,1.966367 0.05262,3.575212 0.116936,3.575212 0.06432,0 0.656581,-0.701308 1.316146,-1.558461 z m 6.46459,-1.166886 c 1.269372,-0.969107 3.490039,-3.643649 3.490039,-4.203358 0,-0.121946 -0.875924,-0.221719 -1.946499,-0.221719 h -1.946498 l -0.729953,1.717514 c -0.401475,0.944631 -1.134396,2.389155 -1.628713,3.21005 -0.494319,0.820898 -0.89876,1.540108 -0.89876,1.598252 0,0.24634 2.360717,-1.108506 3.660384,-2.100739 z m -15.312927,1.821703 c 0,-0.06003 -0.462099,-0.924041 -1.026887,-1.920021 -0.564789,-0.995977 -1.236435,-2.376944 -1.492548,-3.068814 L 40.47535,56.553351 h -1.950249 c -1.072638,0 -1.95025,0.107209 -1.95025,0.238239 0,0.427691 2.015969,2.933448 3.121137,3.879431 1.49191,1.277018 3.764456,2.562333 3.764456,2.12911 z M 39.620402,49.535343 v -4.369704 h -2.172404 -2.172403 l -0.275802,0.993115 c -0.35597,1.281787 -0.35597,5.47139 0,6.753178 l 0.275802,0.993114 h 2.172403 2.172404 z m 8.342161,0 v -4.369704 h -2.64326 -2.643259 l -0.194598,0.728284 c -0.25893,0.969053 -0.265125,6.361522 -0.0084,7.282839 l 0.202964,0.728284 h 2.643259 2.64326 z m 8.385252,3.376589 c 0.25032,-1.246068 0.251273,-6.044778 0.0013,-7.018009 l -0.18692,-0.728284 h -2.643261 -2.643259 v 4.369704 4.369703 h 2.636304 2.636304 z m 7.433326,0.26483 c 0.112018,-0.400556 0.203668,-2.039195 0.203668,-3.641419 0,-1.602225 -0.09165,-3.240864 -0.203668,-3.64142 -0.201147,-0.719262 -0.230763,-0.728284 -2.390832,-0.728284 h -2.187163 v 4.369704 4.369703 h 2.187163 c 2.160069,0 2.189685,-0.009 2.390832,-0.728284 z M 41.033228,40.990012 c 0.30629,-0.840027 1.025391,-2.299905 1.598003,-3.244173 0.572612,-0.944269 1.00451,-1.755433 0.959774,-1.802587 -0.148669,-0.156704 -1.566792,0.678097 -3.222074,1.896726 -1.561594,1.149656 -3.79408,3.721246 -3.79408,4.370383 0,0.204961 0.648263,0.306973 1.950744,0.306973 h 1.950744 z m 6.917467,-2.114097 -0.01187,-3.64142 -1.118019,1.246613 c -1.070582,1.193719 -2.839829,4.185794 -3.216943,5.440358 -0.176,0.585508 -0.139665,0.595868 2.089791,0.595868 h 2.268906 z m 7.426306,3.442796 c -0.0034,-0.827865 -3.865648,-6.9518 -4.384366,-6.9518 -0.06432,0 -0.116936,1.608845 -0.116936,3.575211 v 3.575212 h 2.251059 c 1.238082,0 2.250692,-0.08938 2.250243,-0.198623 z m 6.723118,-0.662076 c -0.649471,-1.265494 -3.742175,-4.190963 -5.336897,-5.048308 -0.761973,-0.409647 -1.385405,-0.707468 -1.385405,-0.661825 0,0.04564 0.655456,1.366959 1.456568,2.936256 0.801112,1.569298 1.456568,3.029063 1.456568,3.243922 0,0.311868 0.428654,0.390654 2.125445,0.390654 h 2.125445 z"
         id="path11852"
         inkscape:connector-curvature="0" /><path
         style="opacity:1;vector-effect:none;fill:#4400ff;fill-opacity:1;stroke:none;stroke-width:2.78173232;stroke-linecap:butt;stroke-linejoin:miter;stroke-miterlimit:2;stroke-dasharray:none;stroke-dashoffset:0;stroke-opacity:1;paint-order:normal"
         d="m 92.464931,60.189545 c -2.035292,-2.039195 -3.878756,-3.707627 -4.096586,-3.707627 -0.217831,0 -1.558267,1.15785 -2.978748,2.573 -1.566088,1.560212 -2.672148,2.472338 -2.809957,2.317267 -0.351624,-0.395667 -6.93881,-20.044048 -6.934902,-20.685556 0.0019,-0.312144 0.187151,-0.638025 0.411668,-0.72418 0.43238,-0.16592 20.40671,6.508119 20.872854,6.974264 0.187731,0.18773 -0.530071,1.030095 -2.294181,2.692298 -1.412066,1.330497 -2.567393,2.613928 -2.567393,2.85207 0,0.238141 1.608845,2.038518 3.575212,4.000837 2.26524,2.260578 3.575211,3.766586 3.575211,4.11024 0,0.455289 -2.52207,3.305014 -2.925011,3.305014 -0.0702,0 -1.792874,-1.668432 -3.828167,-3.707627 z"
         id="path11854"
         inkscape:connector-curvature="0" /></g></g></svg>