<svg xmlns="http://www.w3.org/2000/svg" xmlns:xlink="http://www.w3.org/1999/xlink" version="1.1" x="0px" y="0px" viewBox="0 0 64 80" style="enable-background:new 0 0 64 64;" xml:space="preserve"><g><path d="M62,5H2C1.448,5,1,5.448,1,6v40c0,0.552,0.448,1,1,1h26v4H18c-3.86,0-7,3.14-7,7c0,0.552,0.448,1,1,1h40   c0.552,0,1-0.448,1-1c0-3.86-3.14-7-7-7H36v-4h26c0.552,0,1-0.448,1-1V6C63,5.448,62.552,5,62,5z M50.899,57H13.101   c0.464-2.279,2.485-4,4.899-4h28C48.415,53,50.435,54.721,50.899,57z M34,51h-4v-4h4V51z M61,45H3V7h58V45z"/><path d="M6,43h52c0.552,0,1-0.448,1-1V10c0-0.552-0.448-1-1-1H6c-0.552,0-1,0.448-1,1v32C5,42.552,5.448,43,6,43z M7,11h50v30H7V11   z"/><path d="M45.524,21.148l-13-8c-0.321-0.198-0.727-0.198-1.048,0l-13,8C18.18,21.331,18,21.653,18,22v8   c0,0.347,0.18,0.669,0.476,0.852l13,8C31.637,38.951,31.818,39,32,39s0.363-0.049,0.524-0.148l13-8C45.82,30.669,46,30.347,46,30   v-8C46,21.653,45.82,21.331,45.524,21.148z M44,28.211L40.408,26L44,23.789V28.211z M38.5,24.826L33,21.441V15.79L43.092,22   L38.5,24.826z M32,28.826L27.408,26L32,23.174L36.592,26L32,28.826z M31,15.79v5.652l-5.5,3.384L20.908,22L31,15.79z M20,23.789   L23.592,26L20,28.211V23.789z M25.5,27.174l5.5,3.384v5.652L20.908,30L25.5,27.174z M33,36.21v-5.652l5.5-3.384L43.092,30L33,36.21   z"/><path d="M52,13c-1.654,0-3,1.346-3,3s1.346,3,3,3s3-1.346,3-3S53.654,13,52,13z M52,17c-0.551,0-1-0.449-1-1s0.449-1,1-1   s1,0.449,1,1S52.551,17,52,17z"/><path d="M52,21c-1.654,0-3,1.346-3,3s1.346,3,3,3s3-1.346,3-3S53.654,21,52,21z M52,25c-0.551,0-1-0.449-1-1s0.449-1,1-1   s1,0.449,1,1S52.551,25,52,25z"/><path d="M52,29c-1.654,0-3,1.346-3,3s1.346,3,3,3s3-1.346,3-3S53.654,29,52,29z M52,33c-0.551,0-1-0.449-1-1s0.449-1,1-1   s1,0.449,1,1S52.551,33,52,33z"/></g><text x="0" y="79" fill="#000000" font-size="5px" font-weight="bold" font-family="'Helvetica Neue', Helvetica, Arial-Unicode, Arial, Sans-serif">Created by Template</text><text x="0" y="84" fill="#000000" font-size="5px" font-weight="bold" font-family="'Helvetica Neue', Helvetica, Arial-Unicode, Arial, Sans-serif">from the Noun Project</text></svg>