<?xml version="1.0" encoding="UTF-8" standalone="no"?>
<svg
   xmlns:dc="http://purl.org/dc/elements/1.1/"
   xmlns:cc="http://creativecommons.org/ns#"
   xmlns:rdf="http://www.w3.org/1999/02/22-rdf-syntax-ns#"
   xmlns:svg="http://www.w3.org/2000/svg"
   xmlns="http://www.w3.org/2000/svg"
   xmlns:sodipodi="http://sodipodi.sourceforge.net/DTD/sodipodi-0.dtd"
   xmlns:inkscape="http://www.inkscape.org/namespaces/inkscape"
   version="1.1"
   x="0px"
   y="0px"
   viewBox="0 0 100.4 114.4"
   xml:space="preserve"
   id="svg9515"
   sodipodi:docname="noun_circuit_1393926.svg"
   width="100.4"
   height="114.4"
   inkscape:version="0.92.1 r15371"
   inkscape:export-filename="C:\Users\Miad\OneDrive - University of Toronto\Projects\web_dev\test1\processed\circuit.png"
   inkscape:export-xdpi="124.36759"
   inkscape:export-ydpi="124.36759"><metadata
     id="metadata9521"><rdf:RDF><cc:Work
         rdf:about=""><dc:format>image/svg+xml</dc:format><dc:type
           rdf:resource="http://purl.org/dc/dcmitype/StillImage" /></cc:Work></rdf:RDF></metadata><defs
     id="defs9519" /><sodipodi:namedview
     pagecolor="#ffffff"
     bordercolor="#666666"
     borderopacity="1"
     objecttolerance="10"
     gridtolerance="10"
     guidetolerance="10"
     inkscape:pageopacity="0"
     inkscape:pageshadow="2"
     inkscape:window-width="1366"
     inkscape:window-height="705"
     id="namedview9517"
     showgrid="false"
     inkscape:zoom="2.085965"
     inkscape:cx="66.577858"
     inkscape:cy="51.293552"
     inkscape:window-x="-8"
     inkscape:window-y="-8"
     inkscape:window-maximized="1"
     inkscape:current-layer="svg9515" /><g
     id="g9509"
     style="fill:#0000ff;fill-opacity:1"
     transform="translate(-13.8,-6.8)"><path
       d="M 103.7,37 V 6.8 h -3 V 34.1 C 93.7,28 84.6,24.3 74.6,24.3 53.8,24.3 36.8,40.4 35.2,60.8 H 13.8 v 3 h 21.3 c 0,0 0,0 0,0.1 0,21.8 17.7,39.5 39.5,39.5 10,0 19.1,-3.7 26.1,-9.8 v 27.6 h 3 V 90.6 c 6.5,-7.1 10.5,-16.5 10.5,-26.8 -0.1,-10.3 -4,-19.7 -10.5,-26.8 z M 74.6,27.3 c 9.2,0 17.7,3.5 24.1,9.1 l -35,14.1 3.5,-4.7 -2.4,-1.8 -4,5.3 v -9.9 h -3 V 60.7 H 38.2 C 39.7,42 55.5,27.3 74.6,27.3 Z m 0,73.1 C 54.4,100.4 38.1,84 38.1,63.9 c 0,0 0,0 0,-0.1 h 19.8 v 24.5 h 3 V 76.5 l 37.6,14.9 c -6.5,5.6 -14.8,9 -23.9,9 z M 100.9,89.2 60.9,73.3 V 55.1 l 5.6,4 1.7,-2.4 -4.2,-3 37.1,-15 c 6.2,6.6 10.1,15.4 10.1,25.1 -0.1,9.9 -4,18.8 -10.3,25.4 z"
       id="path9507"
       style="fill:#0000ff;fill-opacity:1"
       inkscape:connector-curvature="0" /></g></svg>