<?xml version="1.0" encoding="UTF-8" standalone="no"?>
<svg
   xmlns:dc="http://purl.org/dc/elements/1.1/"
   xmlns:cc="http://creativecommons.org/ns#"
   xmlns:rdf="http://www.w3.org/1999/02/22-rdf-syntax-ns#"
   xmlns:svg="http://www.w3.org/2000/svg"
   xmlns="http://www.w3.org/2000/svg"
   xmlns:sodipodi="http://sodipodi.sourceforge.net/DTD/sodipodi-0.dtd"
   xmlns:inkscape="http://www.inkscape.org/namespaces/inkscape"
   version="1.1"
   x="0px"
   y="0px"
   viewBox="0 0 48.000629 48.003922"
   enable-background="new 0 0 50 50"
   xml:space="preserve"
   id="svg10740"
   sodipodi:docname="noun_solar panel_2389205.svg"
   inkscape:version="0.92.1 r15371"
   width="48.000629"
   height="48.003922"
   inkscape:export-filename="C:\Users\Miad\OneDrive - University of Toronto\Projects\web_dev\test1\processed\solar_panel.png"
   inkscape:export-xdpi="399.96735"
   inkscape:export-ydpi="399.96735"><metadata
     id="metadata10746"><rdf:RDF><cc:Work
         rdf:about=""><dc:format>image/svg+xml</dc:format><dc:type
           rdf:resource="http://purl.org/dc/dcmitype/StillImage" /></cc:Work></rdf:RDF></metadata><defs
     id="defs10744" /><sodipodi:namedview
     pagecolor="#ffffff"
     bordercolor="#666666"
     borderopacity="1"
     objecttolerance="10"
     gridtolerance="10"
     guidetolerance="10"
     inkscape:pageopacity="0"
     inkscape:pageshadow="2"
     inkscape:window-width="1366"
     inkscape:window-height="705"
     id="namedview10742"
     showgrid="false"
     inkscape:zoom="5.3400704"
     inkscape:cx="1.349375"
     inkscape:cy="21.80874"
     inkscape:window-x="-8"
     inkscape:window-y="-8"
     inkscape:window-maximized="1"
     inkscape:current-layer="g10734" /><g
     id="g10734"
     transform="translate(-0.99972,-0.99804)"><polygon
       points="29.1279,31.10938 26.81222,38.10205 32.16086,38.10205 34.47629,31.10938 "
       id="polygon10696"
       style="fill:#0004a5;fill-opacity:1" /><polygon
       points="19.35715,38.10205 24.70578,38.10205 27.02121,31.10938 21.67257,31.10938 "
       id="polygon10698"
       style="fill:#0004a5;fill-opacity:1" /><polygon
       points="27.01266,14.98193 24.69919,21.96875 30.04806,21.96875 32.36179,14.98193 "
       id="polygon10700"
       style="fill:#0004a5;fill-opacity:1" /><polygon
       points="21.93014,23.96875 13.9675,23.96875 12.29758,29.10938 20.22824,29.10938 "
       id="polygon10702"
       style="fill:#0004a5;fill-opacity:1" /><polygon
       points="46.45676,23.96875 38.94772,23.96875 37.24533,29.10938 44.78781,29.10938 "
       id="polygon10704"
       style="fill:#0004a5;fill-opacity:1" /><path
       d="m 48.81223,15.39209 c -0.18994,-0.26001 -0.48999,-0.41016 -0.81006,-0.41016 h -6.07861 l -2.31348,6.98682 h 7.49585 l 1.84619,-5.68677 c 0.1001,-0.30005 0.04004,-0.62988 -0.13989,-0.88989 z"
       id="path10706"
       style="fill:#0004a5;fill-opacity:1"
       inkscape:connector-curvature="0" /><path
       d="M 11.64816,31.10938 9.80221,36.792 c -0.1001,0.30005 -0.04004,0.64001 0.13989,0.90002 0.18994,0.25 0.48999,0.41003 0.81006,0.41003 h 6.49829 l 2.31543,-6.99268 h -7.91772 z"
       id="path10708"
       style="fill:#0004a5;fill-opacity:1"
       inkscape:connector-curvature="0" /><path
       d="m 16.66232,15.672 -2.04541,6.29675 h 7.97558 l 2.31348,-6.98682 h -7.2937 c -0.43017,0 -0.81006,0.27002 -0.94995,0.69007 z"
       id="path10710"
       style="fill:#0004a5;fill-opacity:1"
       inkscape:connector-curvature="0" /><path
       d="m 34.2673,38.10205 h 6.875 c 0.42993,0 0.80981,-0.28003 0.94995,-0.69006 l 2.04614,-6.30261 h -7.55542 z"
       id="path10712"
       style="fill:#0004a5;fill-opacity:1"
       inkscape:connector-curvature="0" /><polygon
       points="29.79025,29.10938 35.13864,29.10938 36.84103,23.96875 31.49264,23.96875 "
       id="polygon10714"
       style="fill:#0004a5;fill-opacity:1" /><polygon
       points="27.68356,29.10938 29.38595,23.96875 24.03683,23.96875 22.33468,29.10938 "
       id="polygon10716"
       style="fill:#0004a5;fill-opacity:1" /><polygon
       points="34.46848,14.98193 32.155,21.96875 37.50314,21.96875 39.81686,14.98193 "
       id="polygon10718"
       style="fill:#0004a5;fill-opacity:1" /><path
       d="m 14.89035,4.96484 c 0.55273,0 1,-0.44727 1,-1 v -1.9668 c 0,-0.55273 -0.44727,-1 -1,-1 -0.55273,0 -1,0.44727 -1,1 v 1.9668 c 0,0.55274 0.44727,1 1,1 z"
       id="path10720"
       style="fill:#ffac00;fill-opacity:1"
       inkscape:connector-curvature="0" /><path
       d="M 23.09347,7.96777 24.4841,6.57714 c 0.39063,-0.39063 0.39063,-1.02344 0,-1.41406 -0.39063,-0.39062 -1.02344,-0.39063 -1.41406,0 l -1.39063,1.39063 c -0.39063,0.39063 -0.39063,1.02344 0,1.41406 0.39062,0.39062 1.02343,0.39064 1.41406,0 z"
       id="path10722"
       style="fill:#ffac00;fill-opacity:1"
       inkscape:connector-curvature="0" /><path
       d="m 6.22922,21.36426 -1.38965,1.39063 c -0.39063,0.39063 -0.39063,1.02441 0,1.41406 0.39061,0.39061 1.02343,0.39064 1.41406,0 l 1.38965,-1.39063 c 0.39063,-0.39063 0.39063,-1.02441 0,-1.41406 -0.39063,-0.39063 -1.02344,-0.39063 -1.41406,0 z"
       id="path10724"
       style="fill:#ffac00;fill-opacity:1"
       inkscape:connector-curvature="0" /><path
       d="m 4.96554,14.4375 c 0,-0.55273 -0.44727,-1 -1,-1 H 1.99972 c -0.55273,0 -1,0.44727 -1,1 0,0.55273 0.44727,1 1,1 h 1.96582 c 0.55274,0 1,-0.44727 1,-1 z"
       id="path10726"
       style="fill:#ffac00;fill-opacity:1"
       inkscape:connector-curvature="0" /><path
       d="m 6.55344,7.64453 c 0.39061,0.39061 1.02343,0.39064 1.41406,0 0.39063,-0.38965 0.39063,-1.02344 0,-1.41406 L 6.57687,4.83887 c -0.39063,-0.39063 -1.02344,-0.39063 -1.41406,0 -0.39063,0.38965 -0.39063,1.02344 0,1.41406 z"
       id="path10728"
       style="fill:#ffac00;fill-opacity:1"
       inkscape:connector-curvature="0" /><path
       d="m 14.76218,15.052 c 0.40991,-1.23999 1.56006,-2.07007 2.8501,-2.07007 h 5.51001 C 22.33225,9.03198 18.84226,6.04199 14.66233,6.04199 c -4.75,0 -8.62012,3.87 -8.62012,8.62 0,3.90002 2.6001,7.21008 6.15991,8.27002 z"
       id="path10730"
       style="fill:#fffd00;fill-opacity:1"
       inkscape:connector-curvature="0" /><path
       d="m 30.66232,42.72205 h -1.39014 v -2.62 h -6.37012 v 2.62 h -1.38989 c -1.09985,0 -2,0.90002 -2,2 v 2.27991 c 0,1.1001 0.90015,2 2,2 h 9.15015 c 1.09985,0 2,-0.8999 2,-2 v -2.27991 c 0,-1.09998 -0.90015,-2 -2,-2 z"
       id="path10732"
       style="fill:#323232;fill-opacity:1"
       inkscape:connector-curvature="0" /></g></svg>