<?xml version="1.0" encoding="UTF-8" standalone="no"?>
<svg
   xmlns:dc="http://purl.org/dc/elements/1.1/"
   xmlns:cc="http://creativecommons.org/ns#"
   xmlns:rdf="http://www.w3.org/1999/02/22-rdf-syntax-ns#"
   xmlns:svg="http://www.w3.org/2000/svg"
   xmlns="http://www.w3.org/2000/svg"
   xmlns:sodipodi="http://sodipodi.sourceforge.net/DTD/sodipodi-0.dtd"
   xmlns:inkscape="http://www.inkscape.org/namespaces/inkscape"
   version="1.1"
   x="0px"
   y="0px"
   viewBox="0 0 62 62"
   xml:space="preserve"
   id="svg10133"
   sodipodi:docname="noun_pcb_1116658.svg"
   inkscape:version="0.92.1 r15371"
   width="62"
   height="62"
   inkscape:export-filename="C:\Users\Miad\OneDrive - University of Toronto\Projects\web_dev\test1\processed\pcb.png"
   inkscape:export-xdpi="309.67743"
   inkscape:export-ydpi="309.67743"><metadata
     id="metadata10139"><rdf:RDF><cc:Work
         rdf:about=""><dc:format>image/svg+xml</dc:format><dc:type
           rdf:resource="http://purl.org/dc/dcmitype/StillImage" /></cc:Work></rdf:RDF></metadata><defs
     id="defs10137" /><sodipodi:namedview
     pagecolor="#ffffff"
     bordercolor="#666666"
     borderopacity="1"
     objecttolerance="10"
     gridtolerance="10"
     guidetolerance="10"
     inkscape:pageopacity="0"
     inkscape:pageshadow="2"
     inkscape:window-width="1366"
     inkscape:window-height="705"
     id="namedview10135"
     showgrid="false"
     inkscape:zoom="2.95"
     inkscape:cx="22.289786"
     inkscape:cy="41.057533"
     inkscape:window-x="-8"
     inkscape:window-y="-8"
     inkscape:window-maximized="1"
     inkscape:current-layer="svg10133" /><g
     id="g10127"
     style="fill:#646464;fill-opacity:1"
     transform="translate(-1,-1)"><path
       d="M 12.586,1 7,6.586 V 11 H 1 V 25 H 7 V 41 H 1 v 8 H 7 V 63 H 63 V 1 Z M 3,13 H 15 V 23 H 3 Z m 0,30 h 12 v 4 H 3 Z M 61,61 H 9 V 49 h 8 v -3 h 2 V 44 H 17 V 41 H 9 V 25 h 8 v -2 h 2 v -2 h -2 v -6 h 2 V 13 H 17 V 11 H 9 V 7.414 L 13.414,3 H 61 Z"
       id="path10103"
       style="fill:#646464;fill-opacity:1"
       inkscape:connector-curvature="0" /><path
       d="m 39,57 h 14 v -2 h 2 v -2 h -2 v -2 h 2 v -2 h -2 v -2 h 2 v -2 h -2 v -2 h 2 v -2 h -2 v -2 h 2 v -2 h -2 v -2 h 2 v -2 h -2 v -2 h 2 v -2 h -2 v -2 h 2 v -2 h -2 v -2 h 2 v -2 h -2 v -2 h 2 v -2 h -2 v -2 h 2 v -2 h -2 v -2 h 2 V 9 H 53 V 7 H 39 v 2 h -2 v 2 h 2 v 2 h -2 v 2 h 2 v 2 h -2 v 2 h 2 v 2 h -2 v 2 h 2 v 2 h -2 v 2 h 2 v 2 h -2 v 2 h 2 v 2 h -2 v 2 h 2 v 2 h -2 v 2 h 2 v 2 h -2 v 2 h 2 v 2 h -2 v 2 h 2 v 2 h -2 v 2 h 2 v 2 h -2 v 2 h 2 z M 41,9 H 51 V 55 H 41 Z"
       id="path10105"
       style="fill:#646464;fill-opacity:1;stroke:#000000;stroke-opacity:1"
       inkscape:connector-curvature="0" /><circle
       cx="46"
       cy="12"
       r="1"
       id="circle10107"
       style="fill:#646464;fill-opacity:1" /><path
       d="m 33,9 h -8 v 6 h 8 z m -2,4 h -4 v -2 h 4 z"
       id="path10109"
       style="fill:#646464;fill-opacity:1"
       inkscape:connector-curvature="0" /><path
       d="m 33,19 h -8 v 6 h 8 z m -2,4 h -4 v -2 h 4 z"
       id="path10111"
       style="fill:#646464;fill-opacity:1"
       inkscape:connector-curvature="0" /><path
       d="m 19,28 v 2 h -2 v -2 h -2 v 2 h -2 v 6 h 2 v 2 h 2 v -2 h 2 v 2 h 2 v -2 h 2 v 2 h 2 v -2 h 2 v -6 h -2 v -2 h -2 v 2 h -2 v -2 z m 6,6 H 15 v -2 h 10 z"
       id="path10113"
       style="fill:#646464;fill-opacity:1"
       inkscape:connector-curvature="0" /><path
       d="m 15,51 c -2.206,0 -4,1.794 -4,4 0,2.206 1.794,4 4,4 2.206,0 4,-1.794 4,-4 0,-2.206 -1.794,-4 -4,-4 z m 0,6 c -1.103,0 -2,-0.897 -2,-2 0,-1.103 0.897,-2 2,-2 1.103,0 2,0.897 2,2 0,1.103 -0.897,2 -2,2 z"
       id="path10115"
       style="fill:#646464;fill-opacity:1"
       inkscape:connector-curvature="0" /><path
       d="m 25,51 c -2.206,0 -4,1.794 -4,4 0,2.206 1.794,4 4,4 2.206,0 4,-1.794 4,-4 0,-2.206 -1.794,-4 -4,-4 z m 0,6 c -1.103,0 -2,-0.897 -2,-2 0,-1.103 0.897,-2 2,-2 1.103,0 2,0.897 2,2 0,1.103 -0.897,2 -2,2 z"
       id="path10117"
       style="fill:#646464;fill-opacity:1"
       inkscape:connector-curvature="0" /><rect
       x="23"
       y="43"
       width="2"
       height="4"
       id="rect10119"
       style="fill:#646464;fill-opacity:1" /><rect
       x="27"
       y="43"
       width="2"
       height="4"
       id="rect10121"
       style="fill:#646464;fill-opacity:1" /><rect
       x="31"
       y="43"
       width="2"
       height="4"
       id="rect10123"
       style="fill:#646464;fill-opacity:1" /><circle
       cx="13"
       cy="7"
       r="1"
       id="circle10125"
       style="fill:#646464;fill-opacity:1" /><path
       style="opacity:1;vector-effect:none;fill:#141414;fill-opacity:1;stroke:#000000;stroke-width:2.78173232;stroke-linecap:butt;stroke-linejoin:miter;stroke-miterlimit:2;stroke-dasharray:none;stroke-dashoffset:0;stroke-opacity:1;paint-order:normal"
       d="m 15.024991,33.062714 v -0.932203 h 4.915255 4.915254 v 0.932203 0.932204 h -4.915254 -4.915255 z"
       id="path10688"
       inkscape:connector-curvature="0" /><path
       style="opacity:1;vector-effect:none;fill:#141414;fill-opacity:1;stroke:#141414;stroke-width:2.78173232;stroke-linecap:butt;stroke-linejoin:miter;stroke-miterlimit:2;stroke-dasharray:none;stroke-dashoffset:0;stroke-opacity:1;paint-order:normal"
       d="m 13.672841,33.063491 v -2.277123 h 6.26209 6.26209 v 2.277123 2.277124 h -6.26209 -6.26209 z"
       id="path10694"
       inkscape:connector-curvature="0" /></g><path
     style="opacity:1;vector-effect:none;fill:#006900;fill-opacity:1;stroke:none;stroke-width:2.78173232;stroke-linecap:butt;stroke-linejoin:miter;stroke-miterlimit:2;stroke-dasharray:none;stroke-dashoffset:0;stroke-opacity:1;paint-order:normal"
     d="m 8.220339,54.050847 v -5.762711 h 3.898305 3.898305 v -1.525424 c 0,-1.468926 0.03767,-1.525424 1.016949,-1.525424 0.936239,0 1.016949,-0.09416 1.016949,-1.186441 0,-1.092278 -0.08071,-1.18644 -1.016949,-1.18644 -0.979284,0 -1.016949,-0.0565 -1.016949,-1.525424 V 39.813559 H 12.118644 8.220339 v -7.79661 -7.79661 h 3.898305 3.898305 V 23.20339 c 0,-0.903955 0.112994,-1.016949 1.016949,-1.016949 0.936239,0 1.016949,-0.09416 1.016949,-1.186441 0,-1.092279 -0.08071,-1.186441 -1.016949,-1.186441 h -1.016949 v -2.881356 -2.881356 h 1.016949 c 0.936239,0 1.016949,-0.09416 1.016949,-1.18644 0,-1.092279 -0.08071,-1.186441 -1.016949,-1.186441 -0.858757,0 -1.016949,-0.131827 -1.016949,-0.847458 V 9.983051 H 12.118644 8.220339 V 8.1935973 c 0,-1.7459129 0.051773,-1.8407665 2.127764,-3.8983052 L 12.475868,2.1864407 H 36.110815 59.745763 V 31 59.813559 H 33.983051 8.220339 Z m 7.807706,3.553584 c 2.317729,-1.198543 2.701336,-4.885384 0.69485,-6.67818 -1.906151,-1.703146 -5.153267,-1.125227 -6.316492,1.124203 -1.8820653,3.639512 1.968075,7.443312 5.621642,5.553977 z m 10.891938,-0.7934 c 2.532459,-2.834316 0.749709,-6.82798 -3.047972,-6.82798 -2.757819,0 -4.735065,2.971451 -3.671321,5.517349 1.144873,2.740068 4.804317,3.453861 6.719293,1.310631 z m 25.368153,-1.720719 c 0,-0.832844 0.151478,-1.011861 0.932203,-1.101695 0.785956,-0.09043 0.932203,-0.266803 0.932203,-1.12421 0,-0.857407 -0.146247,-1.033776 -0.932203,-1.12421 C 52.574529,51.665888 52.288136,51.438481 52.288136,51 c 0,-0.438481 0.286393,-0.665888 0.932203,-0.740197 0.785956,-0.09043 0.932203,-0.266803 0.932203,-1.12421 0,-0.857407 -0.146247,-1.033776 -0.932203,-1.12421 -0.724203,-0.08333 -0.932203,-0.286305 -0.932203,-0.909688 0,-0.623383 0.208,-0.826359 0.932203,-0.909688 0.785956,-0.09043 0.932203,-0.266804 0.932203,-1.12421 0,-0.857407 -0.146247,-1.033777 -0.932203,-1.124211 -0.724203,-0.08333 -0.932203,-0.286305 -0.932203,-0.909688 0,-0.623383 0.208,-0.826359 0.932203,-0.909688 0.785956,-0.09043 0.932203,-0.266803 0.932203,-1.12421 0,-0.857407 -0.146247,-1.033776 -0.932203,-1.12421 -0.724203,-0.08333 -0.932203,-0.286305 -0.932203,-0.909688 0,-0.623383 0.208,-0.82636 0.932203,-0.909688 0.785956,-0.09043 0.932203,-0.266804 0.932203,-1.124211 0,-0.857406 -0.146247,-1.033776 -0.932203,-1.12421 -0.724203,-0.08333 -0.932203,-0.286306 -0.932203,-0.909688 0,-0.623382 0.208,-0.826359 0.932203,-0.909687 0.785956,-0.09043 0.932203,-0.266804 0.932203,-1.124211 0,-0.857408 -0.146247,-1.033777 -0.932203,-1.124211 C 52.574529,31.665887 52.288136,31.438482 52.288136,31 c 0,-0.438482 0.286393,-0.665887 0.932203,-0.740196 0.785956,-0.09043 0.932203,-0.266803 0.932203,-1.124211 0,-0.857407 -0.146247,-1.033776 -0.932203,-1.124211 -0.724203,-0.08333 -0.932203,-0.286305 -0.932203,-0.909687 0,-0.623382 0.208,-0.826359 0.932203,-0.909688 0.785956,-0.09043 0.932203,-0.266803 0.932203,-1.12421 0,-0.857408 -0.146247,-1.033777 -0.932203,-1.124211 -0.724203,-0.08333 -0.932203,-0.286306 -0.932203,-0.909688 0,-0.623381 0.208,-0.826358 0.932203,-0.909687 0.785956,-0.09043 0.932203,-0.266804 0.932203,-1.124211 0,-0.857407 -0.146247,-1.033777 -0.932203,-1.124211 -0.724203,-0.08333 -0.932203,-0.286306 -0.932203,-0.909687 0,-0.623382 0.208,-0.826359 0.932203,-0.909688 0.785956,-0.09043 0.932203,-0.266803 0.932203,-1.124211 0,-0.857407 -0.146247,-1.033776 -0.932203,-1.12421 -0.724203,-0.08333 -0.932203,-0.286306 -0.932203,-0.909688 0,-0.623382 0.208,-0.826359 0.932203,-0.909687 0.785956,-0.09044 0.932203,-0.266804 0.932203,-1.124211 0,-0.857408 -0.146247,-1.033777 -0.932203,-1.124211 C 52.574529,11.665887 52.288136,11.438482 52.288136,11 c 0,-0.438482 0.286393,-0.665887 0.932203,-0.740196 0.785956,-0.09043 0.932203,-0.266803 0.932203,-1.124211 0,-0.8574072 -0.146247,-1.0337764 -0.932203,-1.1242106 C 52.439614,7.9215498 52.288136,7.7425319 52.288136,6.9096875 V 5.9152542 H 45 37.711864 v 0.9944333 c 0,0.8328444 -0.151476,1.0118623 -0.932203,1.1016949 -0.785957,0.090434 -0.932203,0.2668034 -0.932203,1.1242106 0,0.857408 0.146246,1.033777 0.932203,1.124211 0.645809,0.07431 0.932203,0.301714 0.932203,0.740196 0,0.438482 -0.286394,0.665887 -0.932203,0.740196 -0.785957,0.09043 -0.932203,0.266803 -0.932203,1.124211 0,0.857407 0.146246,1.033776 0.932203,1.124211 0.724202,0.08333 0.932203,0.286305 0.932203,0.909687 0,0.623382 -0.208001,0.826359 -0.932203,0.909688 -0.785957,0.09043 -0.932203,0.266803 -0.932203,1.12421 0,0.857408 0.146246,1.033777 0.932203,1.124211 0.724202,0.08333 0.932203,0.286306 0.932203,0.909688 0,0.623381 -0.208001,0.826358 -0.932203,0.909687 -0.785957,0.09043 -0.932203,0.266804 -0.932203,1.124211 0,0.857407 0.146246,1.033777 0.932203,1.124211 0.724202,0.08333 0.932203,0.286306 0.932203,0.909687 0,0.623382 -0.208001,0.826359 -0.932203,0.909688 -0.785957,0.09043 -0.932203,0.266803 -0.932203,1.124211 0,0.857407 0.146246,1.033776 0.932203,1.12421 0.724202,0.08333 0.932203,0.286306 0.932203,0.909688 0,0.623382 -0.208001,0.826359 -0.932203,0.909687 -0.785957,0.09043 -0.932203,0.266804 -0.932203,1.124211 0,0.857408 0.146246,1.033777 0.932203,1.124211 0.645809,0.07431 0.932203,0.301714 0.932203,0.740196 0,0.438482 -0.286394,0.665887 -0.932203,0.740196 -0.785957,0.09043 -0.932203,0.266803 -0.932203,1.124211 0,0.857407 0.146246,1.033776 0.932203,1.124211 0.724202,0.08333 0.932203,0.286305 0.932203,0.909687 0,0.623382 -0.208001,0.826359 -0.932203,0.909688 -0.785957,0.09043 -0.932203,0.266804 -0.932203,1.12421 0,0.857407 0.146246,1.033777 0.932203,1.124211 0.724202,0.08333 0.932203,0.286305 0.932203,0.909688 0,0.623383 -0.208001,0.826359 -0.932203,0.909688 -0.785957,0.09043 -0.932203,0.266803 -0.932203,1.12421 0,0.857407 0.146246,1.033776 0.932203,1.12421 0.724202,0.08333 0.932203,0.286305 0.932203,0.909688 0,0.623383 -0.208001,0.82636 -0.932203,0.909688 -0.785957,0.09043 -0.932203,0.266804 -0.932203,1.124211 0,0.857406 0.146246,1.033776 0.932203,1.12421 0.724202,0.08333 0.932203,0.286305 0.932203,0.909688 0,0.623383 -0.208001,0.826359 -0.932203,0.909688 -0.785957,0.09043 -0.932203,0.266803 -0.932203,1.12421 0,0.857407 0.146246,1.033776 0.932203,1.12421 0.645809,0.07431 0.932203,0.301716 0.932203,0.740197 0,0.438481 -0.286394,0.665888 -0.932203,0.740197 -0.785957,0.09043 -0.932203,0.266803 -0.932203,1.12421 0,0.857407 0.146246,1.033776 0.932203,1.12421 0.780727,0.08983 0.932203,0.268851 0.932203,1.101695 v 0.994434 H 45 52.288136 Z M 24.152542,44.050847 v -2.203389 h -1.18644 -1.186441 v 2.203389 2.20339 h 1.186441 1.18644 z m 4.067797,0 v -2.203389 h -1.186441 -1.18644 v 2.203389 2.20339 h 1.18644 1.186441 z m 3.999226,-0.08474 0.100921,-2.118644 H 31.11787 29.915254 v 2.224867 2.224868 l 1.101695,-0.106224 c 1.101642,-0.106216 1.1017,-0.106325 1.202616,-2.224867 z M 16.016949,36.084746 c 0,-0.858757 0.131827,-1.016949 0.847458,-1.016949 0.715631,0 0.847457,0.158192 0.847457,1.016949 0,0.936237 0.09416,1.016949 1.186441,1.016949 1.092279,0 1.186441,-0.08071 1.186441,-1.016949 0,-0.858757 0.131827,-1.016949 0.847457,-1.016949 0.715631,0 0.847458,0.158192 0.847458,1.016949 0,0.936237 0.09416,1.016949 1.186441,1.016949 1.092278,0 1.18644,-0.08071 1.18644,-1.016949 0,-0.903955 0.112995,-1.016949 1.01695,-1.016949 h 1.016949 v -3.050848 -3.050847 h -1.016949 c -0.903955,0 -1.01695,-0.112995 -1.01695,-1.016949 0,-0.936239 -0.09416,-1.01695 -1.18644,-1.01695 -1.092279,0 -1.186441,0.08071 -1.186441,1.01695 0,0.858756 -0.131827,1.016949 -0.847458,1.016949 -0.71563,0 -0.847457,-0.158193 -0.847457,-1.016949 0,-0.936239 -0.09416,-1.01695 -1.186441,-1.01695 -1.092279,0 -1.186441,0.08071 -1.186441,1.01695 0,0.858756 -0.131826,1.016949 -0.847457,1.016949 -0.715631,0 -0.847458,-0.158193 -0.847458,-1.016949 0,-0.903955 -0.112994,-1.01695 -1.016949,-1.01695 -0.903955,0 -1.016949,0.112995 -1.016949,1.01695 0,0.903954 -0.112994,1.016949 -1.016949,1.016949 h -1.016949 v 3.050847 3.050848 h 1.016949 c 0.903955,0 1.016949,0.112994 1.016949,1.016949 0,0.903956 0.112994,1.016949 1.016949,1.016949 0.903955,0 1.016949,-0.112993 1.016949,-1.016949 z M 32.288136,21 V 17.779661 H 28.050847 23.813559 V 21 24.220339 h 4.237288 4.237289 z m 0,-10 V 7.9491525 H 28.050847 23.813559 V 11 14.050847 h 4.237288 4.237289 z M 12.572031,6.9734227 c 0.249363,-0.15806 0.401906,-0.6514871 0.338983,-1.0965041 -0.08557,-0.6052105 -0.326807,-0.809122 -0.957219,-0.809122 -0.958481,0 -1.320618,0.9261614 -0.669094,1.7111997 0.468773,0.5648366 0.657892,0.5933993 1.28733,0.1944264 z"
     id="path10684"
     inkscape:connector-curvature="0" /><path
     style="opacity:1;vector-effect:none;fill:#141414;fill-opacity:1;stroke:none;stroke-width:2.78173232;stroke-linecap:butt;stroke-linejoin:miter;stroke-miterlimit:2;stroke-dasharray:none;stroke-dashoffset:0;stroke-opacity:1;paint-order:normal"
     d="M 40.084746,31 V 8.2881356 H 45 49.915254 V 31 53.711864 H 45 40.084746 Z m 5.932203,-20 c 0,-0.67294 -0.192366,-0.869584 -0.934131,-0.954905 -0.609174,-0.07007 -1.005037,0.07733 -1.137962,0.423728 -0.363911,0.948336 0.136109,1.60132 1.137962,1.486082 C 45.824583,11.869584 46.016949,11.67294 46.016949,11 Z"
     id="path10686"
     inkscape:connector-curvature="0" /></svg>